<svg width="121" height="121" viewBox="0 0 121 121" fill="none" xmlns="http://www.w3.org/2000/svg">
<mask id="path-2-inside-1_660_1275" fill="white">
<path d="M99.6249 45.7981L96.8777 41.7524C96.607 41.354 96.1529 41.1204 95.6708 41.1331L90.3453 41.2725C89.886 41.2845 89.4613 41.5188 89.2063 41.9007L88.664 42.7128L83.1391 46.2488C82.7722 46.4837 82.534 46.8746 82.4934 47.3084L82.3734 48.5935H80.2295L76.0133 45.1584C75.6743 44.8824 75.2264 44.7787 74.8014 44.877C74.3755 44.9757 74.0194 45.2655 73.8361 45.6623L72.0808 49.4654L55.2834 42.2945L56.2469 38.621C56.4348 37.9045 56.0383 37.1646 55.3374 36.9245L53.9431 36.4466L51.6476 32.9368L51.9764 32.8564C52.4073 32.7508 52.7636 32.4494 52.9387 32.0419C53.1142 31.6344 53.0883 31.1684 52.8686 30.7829L52.0759 29.3916L55.1095 23.1643C55.4304 22.5056 55.1951 21.7111 54.5676 21.3335L51.8411 19.6921C51.5993 19.5465 51.3205 19.4758 51.0369 19.4915L45.2183 19.7991L37.9637 16.619C37.545 16.4354 37.0624 16.4655 36.6695 16.7008L32.7601 19.0412C32.3722 19.2732 32.1188 19.6769 32.0781 20.1272C32.0373 20.5776 32.2144 21.0198 32.5542 21.318L34.734 23.2289L34.8544 28.0731C34.8628 28.4152 34.9951 28.7424 35.2265 28.9945L38.8092 32.8959L35.8383 38.2513C35.7261 38.4534 35.6654 38.6796 35.6611 38.9108L35.65 39.4993L30.4272 45.2392L27.7788 44.3908C27.0455 44.1559 26.2579 44.5517 26.0091 45.2811L24.551 49.5572C24.3551 50.1319 24.5478 50.7677 25.0301 51.1367L25.7811 51.7114L27.6927 55.6238L27.707 56.4764L21.9369 58.5448C21.402 58.7366 21.034 59.2297 21.0022 59.7972C20.9706 60.3647 21.2817 60.8958 21.7918 61.1459L23.5573 62.0108C23.3039 62.1909 23.1142 62.4513 23.0227 62.7545C22.9 63.1603 22.9659 63.5999 23.2022 63.9519L25.3583 67.1632C25.496 67.3684 25.6851 67.5339 25.9066 67.6431L29.4044 69.3685C30.0113 69.6677 30.7442 69.4955 31.1543 68.9581L32.6955 66.938L33.5254 68.9048L33.0275 71.5233C32.9794 71.7759 33.0014 72.0368 33.0904 72.278L44.6704 103.577C44.8732 104.125 45.4119 104.5 45.9966 104.5C46.1674 104.5 46.3384 104.469 46.5012 104.407L49.3363 103.324C49.6633 103.199 49.9327 102.957 50.0918 102.645L50.714 101.424L51.6808 100.243L54.11 97.3299C54.2675 97.141 54.373 96.9142 54.416 96.672L55.6975 89.4655C55.7387 89.2342 55.7215 88.9963 55.6474 88.7732L54.9706 86.7308L56.2605 82.8319L57.3387 82.1673L58.687 82.0081C59.0765 81.962 59.4295 81.7566 59.6614 81.4402L61.3329 79.1619C61.8973 78.9262 62.5609 78.7454 63.015 78.3226C63.5514 77.8231 64.0546 77.2826 64.5727 76.7642C64.9869 76.35 65.3872 76.0023 65.6202 75.4549C65.882 74.8406 66.1328 74.2214 66.3889 73.6047L71.4174 70.8413C71.8153 70.6225 72.0839 70.2263 72.1398 69.7757L72.3859 67.7873L74.2663 66.3489L76.7893 66.8514C77.269 66.9468 77.7652 66.7873 78.0993 66.4293C78.4334 66.0713 78.5585 65.5656 78.4298 65.0932L76.0258 56.263L78.9767 55.0398L81.0034 56.364C81.1896 56.4857 81.4017 56.5617 81.6227 56.5859L83.1201 56.7504L81.4422 59.2312C81.1421 59.675 81.1183 60.2501 81.3812 60.7169C81.6438 61.1837 82.1443 61.4632 82.6828 61.4359L83.789 61.3815L86.3454 64.874C86.6825 65.3346 87.2633 65.5478 87.8187 65.4132C88.3736 65.2791 88.7934 64.8242 88.8832 64.2604L89.5794 59.8746L90.7669 60.1021C91.1424 60.1736 91.5319 60.0908 91.8452 59.8708C92.1584 59.651 92.3693 59.3136 92.4296 58.9356L93.198 54.1116L93.8809 53.2107C94.0287 53.0156 94.1234 52.7855 94.1556 52.5428L94.2707 51.676L98.4306 50.2306C98.8984 50.068 99.247 49.6727 99.3497 49.1881L99.8377 46.8859C99.9181 46.5092 99.8411 46.1164 99.6249 45.7981ZM96.7491 47.8211L92.52 49.2904C92.0154 49.4657 91.6527 49.9104 91.5824 50.4397L91.4016 51.7999L90.7305 52.6853C90.5902 52.8704 90.4976 53.0874 90.461 53.3171L89.8663 57.0496L88.6781 56.8219C88.3024 56.7502 87.9129 56.8333 87.5996 57.0534C87.2863 57.2734 87.0754 57.611 87.0152 57.9891L86.6223 60.4636L85.6215 59.0965C85.5076 58.9409 85.3652 58.8127 85.2044 58.717L86.7765 56.3926C87.0543 55.9821 87.0967 55.4562 86.8887 55.0064C86.6806 54.5566 86.2523 54.2486 85.7597 54.1945L82.2677 53.8112L79.8992 52.2635C79.5081 52.0077 79.0159 51.962 78.584 52.1409L73.7932 54.1269C73.1359 54.3994 72.7834 55.118 72.9704 55.8046L75.1011 63.6312L74.1917 63.4502C73.7935 63.3706 73.3793 63.4667 73.0565 63.7139L70.1967 65.9015C69.8951 66.1321 69.699 66.4743 69.6524 66.8509L69.4223 68.7108L64.593 71.3647C64.3116 71.5193 64.0914 71.7649 63.9684 72.0613L63.0389 74.2985L61.1752 76.1628L59.8814 76.7027C59.644 76.8017 59.438 76.9638 59.286 77.1712L57.7457 79.2708L56.6976 79.3946C56.4932 79.4186 56.2964 79.4872 56.1211 79.5952L54.3385 80.6941C54.055 80.8687 53.8424 81.1377 53.7379 81.4538L52.1393 86.2865C52.0438 86.5753 52.0438 86.8871 52.1395 87.1755L52.8509 89.3222L51.698 95.8066L49.5016 98.4411L48.4301 99.7492C48.3659 99.8276 48.3102 99.9129 48.2643 100.003L47.82 100.875L46.8281 101.254L35.8804 71.6644L36.3847 69.0122C36.4368 68.7383 36.4065 68.455 36.2984 68.1982L35.1441 65.4635L35.2106 63.2046C35.2287 62.5907 34.8483 62.0352 34.2695 61.8301C33.6903 61.6246 33.0452 61.8172 32.6729 62.3055L29.6126 66.3169L27.497 65.2731L26.5307 63.6324L27.329 63.2148C27.8014 62.9678 28.0947 62.476 28.0873 61.9431C28.0803 61.4101 27.7742 60.9264 27.2957 60.6918L26.6271 60.3642L26.0415 60.0772L29.6156 58.7961C30.1856 58.5917 30.5623 58.047 30.5524 57.4413L30.5161 55.2615C30.5125 55.0542 30.4637 54.8502 30.3726 54.6642L28.1764 50.1695C28.08 49.9726 27.9394 49.8004 27.7651 49.6673L27.5564 49.5077L28.2384 47.5074L30.4307 48.2097C30.9578 48.3785 31.5353 48.2245 31.9079 47.8147L38.1005 41.0092C38.3315 40.7557 38.4622 40.4267 38.4685 40.084L38.4828 39.3157L41.7776 33.3765C42.0729 32.844 41.9942 32.1825 41.5827 31.734L37.6691 27.4724L37.5468 22.539C37.5368 22.144 37.3622 21.7712 37.0652 21.5107L35.8789 20.4707L37.4967 19.502L44.3902 22.5242C44.5924 22.6129 44.8119 22.6526 45.0329 22.6412L50.7542 22.3386L52.0006 23.089L49.2072 28.8239C49.0026 29.2438 49.0186 29.7374 49.2498 30.1432L49.4844 30.555L49.0344 30.6652C48.5889 30.7743 48.2237 31.093 48.0555 31.5199C47.8868 31.9468 47.9363 32.4289 48.1874 32.8127L51.8427 38.4008C52.0149 38.6642 52.2701 38.8627 52.5678 38.9646L53.1785 39.1739L52.2389 42.7568C52.0611 43.4349 52.4068 44.1409 53.0516 44.4163L72.2346 52.6055C72.9383 52.9065 73.7533 52.5921 74.0737 51.8976L75.6408 48.5022L78.8341 51.1035C79.0864 51.3091 79.4019 51.4215 79.7271 51.4215H83.6622C84.3923 51.4215 85.0021 50.8658 85.0701 50.1388L85.2456 48.2585L90.4383 44.9351C90.6028 44.83 90.7435 44.6918 90.852 44.5295L91.1517 44.0806L94.9726 43.9804L96.9475 46.8885L96.7491 47.8211Z"/>
</mask>
<path d="M99.6249 45.7981L96.8777 41.7524C96.607 41.354 96.1529 41.1204 95.6708 41.1331L90.3453 41.2725C89.886 41.2845 89.4613 41.5188 89.2063 41.9007L88.664 42.7128L83.1391 46.2488C82.7722 46.4837 82.534 46.8746 82.4934 47.3084L82.3734 48.5935H80.2295L76.0133 45.1584C75.6743 44.8824 75.2264 44.7787 74.8014 44.877C74.3755 44.9757 74.0194 45.2655 73.8361 45.6623L72.0808 49.4654L55.2834 42.2945L56.2469 38.621C56.4348 37.9045 56.0383 37.1646 55.3374 36.9245L53.9431 36.4466L51.6476 32.9368L51.9764 32.8564C52.4073 32.7508 52.7636 32.4494 52.9387 32.0419C53.1142 31.6344 53.0883 31.1684 52.8686 30.7829L52.0759 29.3916L55.1095 23.1643C55.4304 22.5056 55.1951 21.7111 54.5676 21.3335L51.8411 19.6921C51.5993 19.5465 51.3205 19.4758 51.0369 19.4915L45.2183 19.7991L37.9637 16.619C37.545 16.4354 37.0624 16.4655 36.6695 16.7008L32.7601 19.0412C32.3722 19.2732 32.1188 19.6769 32.0781 20.1272C32.0373 20.5776 32.2144 21.0198 32.5542 21.318L34.734 23.2289L34.8544 28.0731C34.8628 28.4152 34.9951 28.7424 35.2265 28.9945L38.8092 32.8959L35.8383 38.2513C35.7261 38.4534 35.6654 38.6796 35.6611 38.9108L35.65 39.4993L30.4272 45.2392L27.7788 44.3908C27.0455 44.1559 26.2579 44.5517 26.0091 45.2811L24.551 49.5572C24.3551 50.1319 24.5478 50.7677 25.0301 51.1367L25.7811 51.7114L27.6927 55.6238L27.707 56.4764L21.9369 58.5448C21.402 58.7366 21.034 59.2297 21.0022 59.7972C20.9706 60.3647 21.2817 60.8958 21.7918 61.1459L23.5573 62.0108C23.3039 62.1909 23.1142 62.4513 23.0227 62.7545C22.9 63.1603 22.9659 63.5999 23.2022 63.9519L25.3583 67.1632C25.496 67.3684 25.6851 67.5339 25.9066 67.6431L29.4044 69.3685C30.0113 69.6677 30.7442 69.4955 31.1543 68.9581L32.6955 66.938L33.5254 68.9048L33.0275 71.5233C32.9794 71.7759 33.0014 72.0368 33.0904 72.278L44.6704 103.577C44.8732 104.125 45.4119 104.5 45.9966 104.5C46.1674 104.5 46.3384 104.469 46.5012 104.407L49.3363 103.324C49.6633 103.199 49.9327 102.957 50.0918 102.645L50.714 101.424L51.6808 100.243L54.11 97.3299C54.2675 97.141 54.373 96.9142 54.416 96.672L55.6975 89.4655C55.7387 89.2342 55.7215 88.9963 55.6474 88.7732L54.9706 86.7308L56.2605 82.8319L57.3387 82.1673L58.687 82.0081C59.0765 81.962 59.4295 81.7566 59.6614 81.4402L61.3329 79.1619C61.8973 78.9262 62.5609 78.7454 63.015 78.3226C63.5514 77.8231 64.0546 77.2826 64.5727 76.7642C64.9869 76.35 65.3872 76.0023 65.6202 75.4549C65.882 74.8406 66.1328 74.2214 66.3889 73.6047L71.4174 70.8413C71.8153 70.6225 72.0839 70.2263 72.1398 69.7757L72.3859 67.7873L74.2663 66.3489L76.7893 66.8514C77.269 66.9468 77.7652 66.7873 78.0993 66.4293C78.4334 66.0713 78.5585 65.5656 78.4298 65.0932L76.0258 56.263L78.9767 55.0398L81.0034 56.364C81.1896 56.4857 81.4017 56.5617 81.6227 56.5859L83.1201 56.7504L81.4422 59.2312C81.1421 59.675 81.1183 60.2501 81.3812 60.7169C81.6438 61.1837 82.1443 61.4632 82.6828 61.4359L83.789 61.3815L86.3454 64.874C86.6825 65.3346 87.2633 65.5478 87.8187 65.4132C88.3736 65.2791 88.7934 64.8242 88.8832 64.2604L89.5794 59.8746L90.7669 60.1021C91.1424 60.1736 91.5319 60.0908 91.8452 59.8708C92.1584 59.651 92.3693 59.3136 92.4296 58.9356L93.198 54.1116L93.8809 53.2107C94.0287 53.0156 94.1234 52.7855 94.1556 52.5428L94.2707 51.676L98.4306 50.2306C98.8984 50.068 99.247 49.6727 99.3497 49.1881L99.8377 46.8859C99.9181 46.5092 99.8411 46.1164 99.6249 45.7981ZM96.7491 47.8211L92.52 49.2904C92.0154 49.4657 91.6527 49.9104 91.5824 50.4397L91.4016 51.7999L90.7305 52.6853C90.5902 52.8704 90.4976 53.0874 90.461 53.3171L89.8663 57.0496L88.6781 56.8219C88.3024 56.7502 87.9129 56.8333 87.5996 57.0534C87.2863 57.2734 87.0754 57.611 87.0152 57.9891L86.6223 60.4636L85.6215 59.0965C85.5076 58.9409 85.3652 58.8127 85.2044 58.717L86.7765 56.3926C87.0543 55.9821 87.0967 55.4562 86.8887 55.0064C86.6806 54.5566 86.2523 54.2486 85.7597 54.1945L82.2677 53.8112L79.8992 52.2635C79.5081 52.0077 79.0159 51.962 78.584 52.1409L73.7932 54.1269C73.1359 54.3994 72.7834 55.118 72.9704 55.8046L75.1011 63.6312L74.1917 63.4502C73.7935 63.3706 73.3793 63.4667 73.0565 63.7139L70.1967 65.9015C69.8951 66.1321 69.699 66.4743 69.6524 66.8509L69.4223 68.7108L64.593 71.3647C64.3116 71.5193 64.0914 71.7649 63.9684 72.0613L63.0389 74.2985L61.1752 76.1628L59.8814 76.7027C59.644 76.8017 59.438 76.9638 59.286 77.1712L57.7457 79.2708L56.6976 79.3946C56.4932 79.4186 56.2964 79.4872 56.1211 79.5952L54.3385 80.6941C54.055 80.8687 53.8424 81.1377 53.7379 81.4538L52.1393 86.2865C52.0438 86.5753 52.0438 86.8871 52.1395 87.1755L52.8509 89.3222L51.698 95.8066L49.5016 98.4411L48.4301 99.7492C48.3659 99.8276 48.3102 99.9129 48.2643 100.003L47.82 100.875L46.8281 101.254L35.8804 71.6644L36.3847 69.0122C36.4368 68.7383 36.4065 68.455 36.2984 68.1982L35.1441 65.4635L35.2106 63.2046C35.2287 62.5907 34.8483 62.0352 34.2695 61.8301C33.6903 61.6246 33.0452 61.8172 32.6729 62.3055L29.6126 66.3169L27.497 65.2731L26.5307 63.6324L27.329 63.2148C27.8014 62.9678 28.0947 62.476 28.0873 61.9431C28.0803 61.4101 27.7742 60.9264 27.2957 60.6918L26.6271 60.3642L26.0415 60.0772L29.6156 58.7961C30.1856 58.5917 30.5623 58.047 30.5524 57.4413L30.5161 55.2615C30.5125 55.0542 30.4637 54.8502 30.3726 54.6642L28.1764 50.1695C28.08 49.9726 27.9394 49.8004 27.7651 49.6673L27.5564 49.5077L28.2384 47.5074L30.4307 48.2097C30.9578 48.3785 31.5353 48.2245 31.9079 47.8147L38.1005 41.0092C38.3315 40.7557 38.4622 40.4267 38.4685 40.084L38.4828 39.3157L41.7776 33.3765C42.0729 32.844 41.9942 32.1825 41.5827 31.734L37.6691 27.4724L37.5468 22.539C37.5368 22.144 37.3622 21.7712 37.0652 21.5107L35.8789 20.4707L37.4967 19.502L44.3902 22.5242C44.5924 22.6129 44.8119 22.6526 45.0329 22.6412L50.7542 22.3386L52.0006 23.089L49.2072 28.8239C49.0026 29.2438 49.0186 29.7374 49.2498 30.1432L49.4844 30.555L49.0344 30.6652C48.5889 30.7743 48.2237 31.093 48.0555 31.5199C47.8868 31.9468 47.9363 32.4289 48.1874 32.8127L51.8427 38.4008C52.0149 38.6642 52.2701 38.8627 52.5678 38.9646L53.1785 39.1739L52.2389 42.7568C52.0611 43.4349 52.4068 44.1409 53.0516 44.4163L72.2346 52.6055C72.9383 52.9065 73.7533 52.5921 74.0737 51.8976L75.6408 48.5022L78.8341 51.1035C79.0864 51.3091 79.4019 51.4215 79.7271 51.4215H83.6622C84.3923 51.4215 85.0021 50.8658 85.0701 50.1388L85.2456 48.2585L90.4383 44.9351C90.6028 44.83 90.7435 44.6918 90.852 44.5295L91.1517 44.0806L94.9726 43.9804L96.9475 46.8885L96.7491 47.8211Z" fill="#77241D" stroke="#F9FAE6" stroke-width="1.4" mask="url(#path-2-inside-1_660_1275)"/>
<path fill-rule="evenodd" clip-rule="evenodd" d="M43.0145 63.5C42.7832 63.5 42.4364 63.3844 42.3208 63.1532C41.8584 62.4595 41.2803 61.5347 40.5867 60.6098C38.2746 57.4884 35.5 53.5578 35.5 51.0145C35.5 46.8526 38.8526 43.5 43.0145 43.5C44.9798 43.5 46.8295 44.3092 48.2168 45.6965C49.604 47.0838 50.4133 49.0491 50.4133 51.0145C50.4133 53.5578 47.6387 57.604 45.3266 60.7254C44.7486 61.6503 44.0549 62.4595 43.7081 63.1532C43.5925 63.3844 43.2457 63.5 43.0145 63.5ZM43.0145 45.1185C39.7775 45.1185 37.1185 47.7775 37.1185 51.0145C37.1185 52.9798 39.8931 56.9104 41.8584 59.685C42.3208 60.263 42.6676 60.7254 43.0145 61.1879C43.3613 60.841 43.7081 60.263 44.0549 59.8006C46.0202 56.9104 48.7948 53.0954 48.7948 51.0145C48.7948 47.7775 46.2514 45.1185 43.0145 45.1185Z" fill="#77241D"/>
<path fill-rule="evenodd" clip-rule="evenodd" d="M43.0144 55.0606C40.7023 55.0606 38.8525 53.2109 38.8525 51.0144C38.8525 48.7023 40.7023 46.8525 43.0144 46.8525C45.2109 46.8525 47.0606 48.7023 47.0606 51.0144C47.0606 53.2109 45.2109 55.0606 43.0144 55.0606ZM43.0144 48.471C41.6271 48.471 40.471 49.6271 40.471 51.0144C40.471 52.2861 41.6271 53.4421 43.0144 53.4421C44.2861 53.4421 45.4421 52.2861 45.4421 51.0144C45.4421 49.6271 44.2861 48.471 43.0144 48.471Z" fill="#77241D"/>
<path fill-rule="evenodd" clip-rule="evenodd" d="M54.5116 76.5C54.3266 76.5 54.0491 76.4075 53.9566 76.2225C53.5867 75.6676 53.1243 74.9277 52.5694 74.1879C50.7197 71.6908 48.5 68.5462 48.5 66.5116C48.5 63.1821 51.1821 60.5 54.5116 60.5C56.0838 60.5 57.5636 61.1474 58.6734 62.2572C59.7832 63.3671 60.4306 64.9393 60.4306 66.5116C60.4306 68.5462 58.211 71.7832 56.3613 74.2803C55.8988 75.0202 55.3439 75.6676 55.0665 76.2225C54.974 76.4075 54.6965 76.5 54.5116 76.5ZM54.5116 61.7948C51.922 61.7948 49.7948 63.922 49.7948 66.5116C49.7948 68.0838 52.0145 71.2283 53.5867 73.448C53.9566 73.9104 54.2341 74.2803 54.5116 74.6503C54.789 74.3728 55.0665 73.9104 55.3439 73.5405C56.9162 71.2283 59.1358 68.1763 59.1358 66.5116C59.1358 63.922 57.1012 61.7948 54.5116 61.7948Z" fill="#77241D"/>
<path fill-rule="evenodd" clip-rule="evenodd" d="M54.5115 69.7485C52.6618 69.7485 51.1821 68.2687 51.1821 66.5115C51.1821 64.6618 52.6618 63.182 54.5115 63.182C56.2688 63.182 57.7485 64.6618 57.7485 66.5115C57.7485 68.2687 56.2688 69.7485 54.5115 69.7485ZM54.5115 64.4768C53.4017 64.4768 52.4769 65.4017 52.4769 66.5115C52.4769 67.5288 53.4017 68.4537 54.5115 68.4537C55.5289 68.4537 56.4537 67.5288 56.4537 66.5115C56.4537 65.4017 55.5289 64.4768 54.5115 64.4768Z" fill="#77241D"/>
</svg>
